<svg xmlns="http://www.w3.org/2000/svg" data-name="Layer 1" viewBox="0 0 64 64" id="electric-tower"><defs><linearGradient id="a" x1="-23.299" x2="79.679" y1="-17.299" y2="85.679" gradientUnits="userSpaceOnUse"><stop offset="0" stop-color="#9cecfb"></stop><stop offset=".512" stop-color="#65c7f7"></stop><stop offset="1" stop-color="#0052d4"></stop></linearGradient></defs><path fill="url(#a)" d="M56,53H48.8787l-3.2742-9.8291-.3541-3.616L49,37.5793v2.3728a1,1,0,0,0,2,0V36.5255l3.4663-1.8263A1,1,0,0,0,55,33.8145V31.4414a1,1,0,0,0-1-1H44.358l-.7317-7.4722L49,20.1384v2.3723a1,1,0,0,0,2,0V19.0848l3.4663-1.826A1,1,0,0,0,55,16.374V14a1,1,0,0,0-1-1H42.65l-.5183-5.293A2.9886,2.9886,0,0,0,39.1465,5H24.8535a2.9886,2.9886,0,0,0-2.9853,2.707L21.35,13H10a1,1,0,0,0-1,1v2.374a1,1,0,0,0,.5337.8848L13,19.0848v3.4259a1,1,0,0,0,2,0V20.1384l5.3737,2.8308-.7317,7.4722H10a1,1,0,0,0-1,1v2.3731a1,1,0,0,0,.5337.8847L13,36.5255v3.4266a1,1,0,0,0,2,0V37.5793l3.75,1.9756-.3541,3.616L15.1213,53H8a3.0033,3.0033,0,0,0-3,3v2a1,1,0,0,0,1,1H58a1,1,0,0,0,1-1V56A3.0033,3.0033,0,0,0,56,53ZM53,32.4414v.77l-7.96,4.194-.4861-4.9635ZM53,15v.7705l-9.5842,5.0488L42.8459,15Zm-42,.7705V15H21.1541l-.57,5.8193Zm0,17.44v-.77h8.4462L18.96,37.4049Zm9.3286,10.4854a1.0156,1.0156,0,0,0,.0464-.2188l.4315-4.407,0-.004L23.8584,7.9023A.996.996,0,0,1,24.8535,7h14.293a.996.996,0,0,1,.9951.9023l3.0515,31.1642,0,.004.4315,4.407a1.0156,1.0156,0,0,0,.0464.2188L46.7705,53H44.67l-3.0021-9.0186L38.3252,9.9023A1,1,0,0,0,37.33,9H26.67a1,1,0,0,0-.9951.9023L22.3257,44.001,19.33,53H17.23ZM37.595,41.1475,32,45.1847l-5.595-4.0372Zm-10.2425-2L32,36.698l4.6475,2.45ZM39.4856,42.249l.1838,1.876.03.22a.9941.9941,0,0,0,.042.1807l2.736,8.22-8.7688-6.3274Zm-5.3408-6.6814,4.4559-2.3485.4854,4.9526Zm1.6422-3.1262L32,34.4372l-3.787-1.9958Zm-7.8273-2L32,28.1486l4.04,2.2928Zm6.0669-3.4429,3.7557-2.1313.4423,4.5137ZM36.9172,16.04l.4551,4.6441-3.6066-2.4784ZM32,16.9923,29.1009,15h5.7982Zm3.7872,5.0292H28.2128L32,19.419Zm-.5677,2L32,25.8485l-3.2195-1.827ZM27.38,13l.1965-2h8.8466l.196,2Zm-.2985,3.0393,3.1526,2.1664-3.609,2.48Zm-.8669,8.8262,3.7587,2.133-4.2024,2.3849Zm-.82,8.3511,4.4607,2.351L24.9075,38.175ZM24.2588,44.5254a1.0013,1.0013,0,0,0,.0464-.2178l.2026-2.0633,5.7836,4.1732-8.7685,6.3271ZM32,47.65,39.4141,53H24.5855ZM57,57H7V56a1.0009,1.0009,0,0,1,1-1H56a1.0009,1.0009,0,0,1,1,1Z"></path></svg>