<svg xmlns="http://www.w3.org/2000/svg" data-name="Layer 1" viewBox="0 0 68 68" id="office"><path fill="#e1e6e9" d="M45 23V3H3v62h42"></path><path d="M45 66H3a1 1 0 0 1-1-1V3a1 1 0 0 1 1-1h42a1 1 0 0 1 1 1v20a1 1 0 0 1-2 0V4H4v60h41a1 1 0 0 1 0 2z"></path><path fill="#72bede" d="M7 7h8v12H7z"></path><path d="M15 20H7a1 1 0 0 1-1-1V7a1 1 0 0 1 1-1h8a1 1 0 0 1 1 1v12a1 1 0 0 1-1 1zm-7-2h6V8H8z"></path><path fill="#72bede" d="M19 7h8v12h-8z"></path><path d="M27 20h-8a1 1 0 0 1-1-1V7a1 1 0 0 1 1-1h8a1 1 0 0 1 1 1v12a1 1 0 0 1-1 1zm-7-2h6V8h-6z"></path><path fill="#72bede" d="M31 7h8v12h-8z"></path><path d="M39 20h-8a1 1 0 0 1-1-1V7a1 1 0 0 1 1-1h8a1 1 0 0 1 1 1v12a1 1 0 0 1-1 1zm-7-2h6V8h-6z"></path><path fill="#72bede" d="M7 7h8v12H7z"></path><path d="M15 20H7a1 1 0 0 1-1-1V7a1 1 0 0 1 1-1h8a1 1 0 0 1 1 1v12a1 1 0 0 1-1 1zm-7-2h6V8H8z"></path><path fill="#72bede" d="M19 7h8v12h-8z"></path><path d="M27 20h-8a1 1 0 0 1-1-1V7a1 1 0 0 1 1-1h8a1 1 0 0 1 1 1v12a1 1 0 0 1-1 1zm-7-2h6V8h-6z"></path><path fill="#72bede" d="M7 23h8v12H7z"></path><path d="M15 36H7a1 1 0 0 1-1-1V23a1 1 0 0 1 1-1h8a1 1 0 0 1 1 1v12a1 1 0 0 1-1 1zm-7-2h6V24H8z"></path><path fill="#72bede" d="M19 23h8v12h-8z"></path><path d="M27 36h-8a1 1 0 0 1-1-1V23a1 1 0 0 1 1-1h8a1 1 0 0 1 1 1v12a1 1 0 0 1-1 1zm-7-2h6V24h-6z"></path><path fill="#72bede" d="M7 23h8v12H7z"></path><path d="M15 36H7a1 1 0 0 1-1-1V23a1 1 0 0 1 1-1h8a1 1 0 0 1 1 1v12a1 1 0 0 1-1 1zm-7-2h6V24H8z"></path><path fill="#72bede" d="M19 23h8v12h-8z"></path><path d="M27 36h-8a1 1 0 0 1-1-1V23a1 1 0 0 1 1-1h8a1 1 0 0 1 1 1v12a1 1 0 0 1-1 1zm-7-2h6V24h-6z"></path><path fill="#72bede" d="M7 39h8v12H7z"></path><path d="M15 52H7a1 1 0 0 1-1-1V39a1 1 0 0 1 1-1h8a1 1 0 0 1 1 1v12a1 1 0 0 1-1 1zm-7-2h6V40H8z"></path><path fill="#72bede" d="M19 39h8v12h-8z"></path><path d="M27 52h-8a1 1 0 0 1-1-1V39a1 1 0 0 1 1-1h8a1 1 0 0 1 1 1v12a1 1 0 0 1-1 1zm-7-2h6V40h-6z"></path><path fill="#72bede" d="M7 39h8v12H7z"></path><path d="M15 52H7a1 1 0 0 1-1-1V39a1 1 0 0 1 1-1h8a1 1 0 0 1 1 1v12a1 1 0 0 1-1 1zm-7-2h6V40H8z"></path><path fill="#72bede" d="M19 39h8v12h-8z"></path><path d="M27 52h-8a1 1 0 0 1-1-1V39a1 1 0 0 1 1-1h8a1 1 0 0 1 1 1v12a1 1 0 0 1-1 1zm-7-2h6V40h-6z"></path><path fill="#72bede" d="M31 7h8v12h-8z"></path><path d="M39 20h-8a1 1 0 0 1-1-1V7a1 1 0 0 1 1-1h8a1 1 0 0 1 1 1v12a1 1 0 0 1-1 1zm-7-2h6V8h-6z"></path><path fill="#ebf0f3" d="M31 23v42h14V55h6v10h14V23H31z"></path><path d="M65 66H51a1 1 0 0 1-1-1v-9h-4v9a1 1 0 0 1-1 1H31a1 1 0 0 1-1-1V23a1 1 0 0 1 1-1h34a1 1 0 0 1 1 1v42a1 1 0 0 1-1 1zm-13-2h12V24H32v40h12v-9a1 1 0 0 1 1-1h6a1 1 0 0 1 1 1z"></path><path fill="#72bede" d="M35 27h6v10h-6z"></path><path d="M41 38h-6a1 1 0 0 1-1-1V27a1 1 0 0 1 1-1h6a1 1 0 0 1 1 1v10a1 1 0 0 1-1 1zm-5-2h4v-8h-4z"></path><path fill="#72bede" d="M45 27h6v10h-6z"></path><path d="M51 38h-6a1 1 0 0 1-1-1V27a1 1 0 0 1 1-1h6a1 1 0 0 1 1 1v10a1 1 0 0 1-1 1zm-5-2h4v-8h-4z"></path><path fill="#72bede" d="M55 27h6v10h-6z"></path><path d="M61 38h-6a1 1 0 0 1-1-1V27a1 1 0 0 1 1-1h6a1 1 0 0 1 1 1v10a1 1 0 0 1-1 1zm-5-2h4v-8h-4z"></path><path fill="#72bede" d="M35 41h6v10h-6z"></path><path d="M41 52h-6a1 1 0 0 1-1-1V41a1 1 0 0 1 1-1h6a1 1 0 0 1 1 1v10a1 1 0 0 1-1 1zm-5-2h4v-8h-4z"></path><path fill="#72bede" d="M45 41h6v10h-6z"></path><path d="M51 52h-6a1 1 0 0 1-1-1V41a1 1 0 0 1 1-1h6a1 1 0 0 1 1 1v10a1 1 0 0 1-1 1zm-5-2h4v-8h-4z"></path><path fill="#72bede" d="M55 41h6v10h-6z"></path><path d="M61 52h-6a1 1 0 0 1-1-1V41a1 1 0 0 1 1-1h6a1 1 0 0 1 1 1v10a1 1 0 0 1-1 1zm-5-2h4v-8h-4z"></path></svg>