<svg xmlns="http://www.w3.org/2000/svg" enable-background="new 0 0 100 100" viewBox="0 0 100 100" id="apartment"><rect width="33.142" height="72.954" x="10.608" y="16.802" fill="#ededed"></rect><rect width="23.899" height="6.197" x="15.23" y="21.71" fill="#4da0dc"></rect><rect width="23.899" height="6.197" x="15.23" y="33.099" fill="#4da0dc"></rect><rect width="23.899" height="6.196" x="15.23" y="44.487" fill="#4da0dc"></rect><rect width="23.899" height="6.197" x="15.23" y="55.874" fill="#4da0dc"></rect><rect width="23.899" height="6.197" x="15.23" y="67.263" fill="#4da0dc"></rect><rect width="23.899" height="6.197" x="15.23" y="78.651" fill="#4da0dc"></rect><rect width="56.481" height="42.508" x="33.437" y="47.248" fill="#fff"></rect><rect width="56.481" height="2.013" x="33.437" y="67.469" fill="#d6b24e"></rect><rect width="56.481" height="2.554" x="33.437" y="87.202" fill="#dbd8dd"></rect><rect width="63.082" height="6.555" x="30.137" y="40.69" fill="#dd584d"></rect><rect width="40.796" height="6.555" x="6.781" y="10.244" fill="#cd5248"></rect><g><rect width="10.017" height="16.583" x="51.661" y="73.173" fill="#467082"></rect><rect width="10.017" height="16.583" x="61.678" y="73.173" fill="#416777"></rect></g><g><rect width="7.702" height="13.421" x="37.951" y="50.647" fill="#4da0dc"></rect><path fill="#32786a" d="M46.0909195,64.5052795h-8.5775871V50.2088013h8.5775871V64.5052795z M38.3890495,63.6295586h6.8261528
					V51.0845184h-6.8261528V63.6295586z"></path><rect width="7.702" height="13.421" x="51.202" y="50.647" fill="#4da0dc"></rect><path fill="#32786a" d="M59.3412743,64.5052795h-8.5775871V50.2088013h8.5775871V64.5052795z M51.6394043,63.6295586h6.826149
					V51.0845184h-6.826149V63.6295586z"></path><g><rect width="7.702" height="13.421" x="64.452" y="50.647" fill="#4da0dc"></rect><path fill="#32786a" d="M72.591629,64.5052795h-8.5775909V50.2088013h8.5775909V64.5052795z M64.8897552,63.6295586h6.8261566
					V51.0845184h-6.8261566V63.6295586z"></path></g><g><rect width="7.702" height="13.421" x="77.702" y="50.647" fill="#4da0dc"></rect><path fill="#32786a" d="M85.84198,64.5052795h-8.5775833V50.2088013H85.84198V64.5052795z M78.1401138,63.6295586h6.826149
					V51.0845184h-6.826149V63.6295586z"></path></g></g><polygon fill="#cd5248" points="30.137 47.245 33.437 50.596 33.437 47.248"></polygon><polygon fill="#cd5248" points="93.219 47.245 89.918 50.596 89.918 47.248"></polygon></svg>